<svg height="512pt" viewBox="-8 0 511 512" width="512pt" xmlns="http://www.w3.org/2000/svg"><path d="m248.152344 73.683594c23.949218 0 45.820312-7.375 58.496094-19.734375 3.007812-2.929688 3.070312-7.746094.136718-10.753907-2.929687-3.003906-7.742187-3.066406-10.75-.136718-9.757812 9.511718-28.105468 15.417968-47.882812 15.417968s-38.128906-5.910156-47.902344-15.421874c-3.011719-2.929688-7.824219-2.863282-10.753906.144531-2.929688 3.011719-2.863282 7.824219.144531 10.753906 12.695313 12.355469 34.566406 19.730469 58.511719 19.730469zm0 0"/><path d="m495.316406 410.25c-1.9375-10.578125-4.679687-25.515625-7.113281-38.695312-.941406-5.105469-4.328125-9.433594-9.054687-11.578126-1.871094-.847656-3.859376-1.300781-5.863282-1.390624-5.523437-44.929688-15.28125-91.378907-29.050781-138.160157-1.1875-4.027343-5.410156-6.335937-9.441406-5.148437-4.03125 1.183594-6.332031 5.414062-5.148438 9.441406 13.898438 47.21875 23.640625 94.0625 28.980469 139.273438-19.445312 9.964843-37.765625 11.808593-49.234375 11.695312-.046875-.140625-.097656-.28125-.136719-.425781l-41.96875-151.699219c.269532-30.433594 12.839844-51.730469 39.347656-66.410156 3.0625 7.730468 8.140626 21.117187 14.003907 38.796875 1.058593 3.191406 4.03125 5.210937 7.21875 5.210937.792969 0 1.597656-.125 2.390625-.386718 3.988281-1.324219 6.148437-5.625 4.828125-9.613282-9.757813-29.417968-17.230469-46.820312-17.542969-47.546875-.382812-.886719-.925781-1.6875-1.605469-2.367187-21.949219-21.949219-51.753906-37.113282-69.285156-44.820313.992187-2.625 1.527344-5.386719 1.527344-8.285156v-43.921875c0-28.722656-51.53125-44.21875-100.019531-44.21875-48.492188 0-100.023438 15.496094-100.023438 44.21875v43.921875c0 2.898437.535156 5.660156 1.527344 8.285156-17.539063 7.710938-47.34375 22.882813-69.28125 44.820313-.679688.679687-1.222656 1.480468-1.601563 2.363281-.417969.964844-41.152343 96.355469-55.765625 214.980469-2 .089844-3.988281.539062-5.855468 1.390625-4.726563 2.144531-8.109376 6.472656-9.050782 11.578125v-.003906c-2.4375 13.179687-5.175781 28.117187-7.113281 38.695312-2.296875 12.527344 3.726563 24.917969 14.988281 30.832031 11.722656 6.15625 30.925782 13.433594 56.175782 13.433594.378906 0 .761718 0 1.140624-.003906 14.039063-.121094 25.929688-10.273438 28.273438-24.144531l6.125-36.285157c.8125-4.796875-.582031-9.621093-3.820312-13.246093-.628907-.707032-1.328126-1.328126-2.058594-1.898438l5.097656-18.40625c1.117188-4.046875-1.253906-8.238281-5.300781-9.359375-4.050781-1.121094-8.238281 1.253906-9.355469 5.300781l-5.203125 18.789063c-.039063.144531-.089844.285156-.136719.429687-11.472656.113282-29.792968-1.730468-49.238281-11.695312 11.707031-99.007813 42.226563-182.078125 52-206.835938 26.503906 14.675782 39.070313 35.976563 39.339844 66.414063l-28.671875 103.660156c-1.117188 4.046875 1.253906 8.234375 5.300781 9.355469s8.238281-1.253906 9.355469-5.300782l20.042968-72.464843c4.804688 33.800781 8.800782 87.152343-5.210937 126.386719-1.402344 3.925781-2.113281 7.945312-2.199219 11.921874-6.398437 7.007813-14.171875 17.253907-18.890625 29.636719-5.914062 15.515625-5.574219 30.332031 1.007813 44.035157 17.1875 35.84375 94.09375 41.195312 138.402344 41.195312 44.3125 0 121.214843-5.351562 138.402343-41.191406 6.582031-13.703125 6.925781-28.519532 1.011719-44.039063-4.71875-12.382812-12.496094-22.628906-18.890625-29.636719-.085937-3.972656-.796875-7.992187-2.199219-11.921874-14.011718-39.234376-10.015625-92.597657-5.210937-126.398438l33.230469 120.117188c-.730469.574218-1.429688 1.195312-2.058594 1.902343-3.238282 3.625-4.632813 8.453125-3.824219 13.246094l6.128906 36.289063c2.34375 13.871093 14.234375 24.023437 28.273438 24.144531.382812 0 .757812.003906 1.136719.003906 25.25 0 44.453124-7.277344 56.179687-13.433594 11.257813-5.914062 17.28125-18.304687 14.988281-30.832031zm-402.621094-18.703125-6.128906 36.289063c-1.113281 6.585937-6.75 11.410156-13.40625 11.464843-.339844.003907-.675781.003907-1.007812.003907-22.15625 0-38.90625-6.332032-49.109375-11.6875-5.335938-2.804688-8.191407-8.679688-7.101563-14.628907 1.9375-10.570312 4.675782-25.5 7.109375-38.671875.019531-.101562.0625-.347656.382813-.492187.113281-.050781.214844-.066407.300781-.066407.175781 0 .296875.070313.355469.105469 27.648437 16.410157 54.394531 17.621094 67.894531 16.875.085937-.003906.328125-.015625.546875.226563.21875.25.175781.5.164062.582031zm131.761719-260.410156v63.089843c-3.832031 1.507813-8.050781 3.269532-12.550781 5.304688-17.996094-32.171875-52.320312-59.742188-88.941406-72.003906 14.242187-8.765625 27.839844-15.070313 35.957031-18.53125 13.667969 11.839844 38.6875 19.351562 65.535156 22.140625zm0 79.507812v44.460938c-27.121093 16.78125-52.960937 44.734375-69.746093 69.179687.476562-22.769531-1.46875-44.882812-3.832032-62.640625 21.394532-25.652343 52.117188-41.972656 73.578125-51zm-80.304687 179.683594c3.0625-8.574219 5.332031-17.691406 6.980468-27.066406 4.792969-17.976563 35.699219-63.359375 73.324219-89.9375v161.496093c-33.601562-2.417968-55.117187-9.742187-67.863281-16.0625-.710938-.355468-1.4375-.746093-2.132812-1.128906-9.6875-5.4375-14.023438-16.917968-10.308594-27.300781zm95.511718-258.125c2.832032.101563 5.664063.15625 8.484376.15625 2.816406 0 5.640624-.054687 8.46875-.15625v303.335937c-2.753907.066407-5.574219.101563-8.46875.101563-.082032 0-.160157.003906-.242188.003906-2.816406 0-5.558594-.035156-8.242188-.101562zm97.707032-23.210937c8.117187 3.460937 21.71875 9.765624 35.964844 18.53125-36.625 12.261718-70.949219 39.835937-88.945313 72.011718-4.503906-2.042968-8.730469-3.808594-12.566406-5.320312v-63.078125c26.851562-2.785157 51.878906-10.296875 65.546875-22.144531zm-65.546875 101.644531c21.46875 9.035156 52.207031 25.355469 73.597656 51.007812-2.359375 17.730469-4.304687 39.808594-3.835937 62.539063-4.042969-5.894532-8.585938-11.957032-13.5-17.96875-17.546876-21.449219-37.375-39.449219-56.261719-51.128906zm0 62.675781c37.628906 26.578125 68.550781 71.984375 73.347656 89.964844 1.644531 9.367187 3.917969 18.480468 6.980469 27.050781 3.707031 10.382813-.628906 21.863281-10.316406 27.292969-.738282.417968-1.453126.792968-2.105469 1.121094-12.769531 6.332031-34.292969 13.660156-67.90625 16.074218zm80.253906-49.648438c-.546875 2.390626-2.015625 9.054688-3.691406 18.679688-15.535157-15.640625-33.8125-27.496094-50.316407-36.136719 18.210938-32.09375 54.5625-59.011719 91.660157-67.527343 2.625 1.984374 5.203125 4.046874 7.707031 6.191406-30.246094 17.414062-45.109375 43.296875-45.359375 78.792968zm-188.746094-179.445312c0-12.113281 32.265625-29.011719 84.816407-29.011719 52.546874 0 84.8125 16.898438 84.8125 29.011719v43.921875c0 12.113281-32.265626 29.011719-84.8125 29.011719-52.550782 0-84.816407-16.898438-84.816407-29.011719zm-64.46875 100.652344c2.503907-2.144532 5.082031-4.207032 7.707031-6.191406 37.09375 8.515624 73.449219 35.429687 91.65625 67.523437-16.5 8.640625-34.777343 20.496094-50.3125 36.136719-1.679687-9.632813-3.148437-16.300782-3.691406-18.679688-.253906-35.492187-15.113281-61.375-45.359375-78.789062zm273.976563 319.359375c-9.777344 20.386719-56.390625 32.5625-124.691406 32.5625-68.296876 0-114.914063-12.175781-124.691407-32.570313-8.742187-18.195312-.15625-36.40625 8.632813-48.53125 3.328125 6.207032 8.421875 11.546875 14.992187 15.234375.941407.515625 1.835938.996094 2.730469 1.445313 17.003906 8.429687 47.867188 18.480468 98.335938 18.480468.085937 0 .167968 0 .25-.003906 50.324218-.03125 81.113281-10.0625 98.089843-18.484375.890625-.441406 1.828125-.9375 2.789063-1.476562 6.539062-3.667969 11.617187-8.996094 14.933594-15.1875 8.792968 12.121093 17.371093 30.332031 8.628906 48.53125zm100.414062-36.613281c-10.355468 5.441406-27.417968 11.863281-50.113281 11.6875-6.65625-.058594-12.292969-4.882813-13.40625-11.46875l-6.128906-36.289063c-.015625-.082031-.058594-.332031.164062-.578125.179688-.203125.375-.230469.488281-.230469.023438 0 .042969.003907.058594.003907 13.488282.742187 40.242188-.464844 67.890625-16.875.089844-.054688.320313-.191407.65625-.042969.320313.148437.363281.390625.386719.492187 2.429688 13.171875 5.171875 28.101563 7.105469 38.671875 1.089843 5.949219-1.765625 11.824219-7.101563 14.628907zm0 0"/></svg>