<svg id="Capa_1" enable-background="new 0 0 511.989 511.989" height="512" viewBox="0 0 511.989 511.989" width="512" xmlns="http://www.w3.org/2000/svg"><g><g><g><path d="m336.859 290.72-16.163 16.177-15.216 5.998-106.637-107.587 5.993-14.27 16.164-16.177z" fill="#ddd3ce"/><path d="m311.912 292.457 10.858-10.858-21.213-21.213-50.205-50.205-21.213-21.213-10.858 10.858c-1.562 1.562-4.095 1.562-5.657 0l-8.788-8.788-10.604 10.609 11.614 11.614 21.213 21.213 50.205 50.205 21.213 21.213 11.614 11.614 10.604-10.609-8.784-8.784c-1.561-1.562-1.561-4.094.001-5.656z" fill="#d1c7c1"/></g><g><g><path d="m351.851 23.712-132.72 132.611c-6.192 6.192-6.192 16.232 0 22.424l18.889 18.889c1.953 1.953 1.953 5.118 0 7.071l-18.889 18.889 68.252 66.669 11.365-6.265 8.282-8.282c1.953-1.953 5.118-1.953 7.071 0l18.889 18.889c6.192 6.192 16.232 6.192 22.424 0l144.264-144.264c6.192-6.192 6.192-16.232 0-22.424l-115.859-115.86c-.193-.194-.398-.373-.599-.555-6.224-5.624-25.37 6.209-31.369 12.208z" fill="#f7f3f1"/><path d="m241.88 220.061 10.404-10.404c4.686-4.686 4.686-12.284 0-16.971l-21.616-21.616c-1.953-1.953-1.953-5.118 0-7.071l151.94-151.94c.195-.195.411-.373.613-.555-6.225-5.621-15.828-5.443-21.826.555l-144.264 144.264c-6.192 6.192-6.192 16.232 0 22.424l18.889 18.889c1.953 1.953 1.953 5.118 0 7.071l-20.757 20.757 71.011 71.011 12.474-12.475-56.868-56.868c-1.953-1.953-1.953-5.119 0-7.071z" fill="#eae2df"/></g></g><g><path d="m128.064 494.52-110.553-111.169c-5.858-5.858-5.858-15.355 0-21.213l148.426-150.723c5.858-5.858 22.307-16.706 28.165-10.848l117.07 117.07c5.858 5.858 5.858 15.355 0 21.213l-161.172 161.172c-5.858 5.858-16.078.356-21.936-5.502z" fill="#f7f3f1"/><path d="m25.858 368.809 168.243-168.243c-5.858-5.858-15.355-5.858-21.213 0l-161.172 161.172c-5.858 5.858-5.858 15.355 0 21.213l117.07 117.07c5.858 5.858 15.355 5.858 21.213 0l-124.141-124.141c-1.952-1.953-1.952-5.118 0-7.071z" fill="#eae2df"/></g><g><path d="m340.667 254.435-83.364-83.364c-1.953-1.953-1.953-5.118 0-7.071l89.344-89.344c1.953-1.953 5.118-1.953 7.071 0l7.071 4.071 79.293 79.293c1.953 1.953 1.953 5.118 0 7.071l-85.273 85.273-7.071 4.071c-1.952 1.952-5.118 1.952-7.071 0z" fill="#9ce6fb"/><path d="m274.102 169.656c-1.172-1.172-1.172-3.071 0-4.243l86.687-86.687-7.071-7.071c-1.953-1.953-5.118-1.953-7.071 0l-92.344 92.345c-1.953 1.953-1.953 5.118 0 7.071l86.364 86.364c1.953 1.953 5.118 1.953 7.071 0l7.071-7.071z" fill="#68dbf9"/></g><g><path d="m230.212 303.95c6.192-6.192 6.192-16.232 0-22.424-1.244-1.244-2.646-2.232-4.138-2.976l-12.308-.006s-16.255 10.658-4.832 24.956c4.368 5.467 17.14 3.427 17.14 3.427 1.492-.745 2.894-1.733 4.138-2.977z" fill="#ffbf54"/><path d="m221.93 303.95c-6.192-6.192-6.192-16.232 0-22.424 1.244-1.244 2.651-2.232 4.144-2.976-5.935-2.959-13.338-1.972-18.286 2.976-6.192 6.192-6.192 16.232 0 22.424 4.948 4.948 12.351 5.936 18.286 2.976-1.493-.744-2.9-1.732-4.144-2.976z" fill="#ffa442"/></g></g><g><path d="m350.36 60.694c-1.989 0-3.897.79-5.303 2.196l-99.415 99.415c-1.407 1.407-2.197 3.314-2.197 5.304s.79 3.896 2.197 5.304l93.435 93.435c1.464 1.464 3.384 2.196 5.303 2.196s3.839-.732 5.303-2.196l32.388-32.388c2.929-2.93 2.929-7.678 0-10.607-2.929-2.928-7.678-2.928-10.606 0l-27.085 27.085-82.829-82.828 88.809-88.81 82.829 82.829-36.975 36.974c-2.929 2.93-2.929 7.678 0 10.607 2.928 2.927 7.677 2.929 10.606 0l42.278-42.277c1.407-1.407 2.197-3.314 2.197-5.304s-.79-3.896-2.197-5.304l-93.435-93.435c-1.406-1.406-3.314-2.196-5.303-2.196z"/><path d="m17.197 377.721c-1.417-1.416-2.197-3.3-2.197-5.303s.78-3.887 2.197-5.303l106.947-106.947c2.929-2.93 2.929-7.678 0-10.607-2.929-2.928-7.678-2.928-10.606 0l-106.948 106.947c-4.25 4.25-6.59 9.9-6.59 15.91s2.341 11.66 6.59 15.91l62.071 62.07c1.464 1.464 3.384 2.196 5.303 2.196s3.839-.732 5.303-2.196c2.929-2.93 2.929-7.678 0-10.607z"/><path d="m505.159 122.689-66.881-66.882c-2.928-2.928-7.677-2.928-10.606 0-2.929 2.93-2.929 7.678 0 10.607l66.881 66.881c3.258 3.259 3.258 8.56 0 11.817l-144.264 144.264c-1.579 1.579-3.677 2.448-5.909 2.448s-4.33-.869-5.909-2.448l-22.425-22.424c-2.929-2.928-7.678-2.928-10.606 0l-17.121 17.121-60.404-60.403 17.121-17.121c1.407-1.407 2.197-3.314 2.197-5.304s-.79-3.896-2.197-5.304l-22.424-22.425c-1.578-1.578-2.447-3.677-2.447-5.908s.869-4.33 2.447-5.908l144.263-144.263c3.259-3.26 8.56-3.26 11.818 0l24.229 24.229c2.929 2.928 7.678 2.928 10.606 0 2.929-2.93 2.929-7.678 0-10.607l-24.228-24.23c-9.106-9.105-23.925-9.105-33.031 0l-144.264 144.264c-7.25 7.25-8.707 18.112-4.414 26.838l-13.413 13.412c-3.2-1.694-6.784-2.597-10.507-2.597-6.01 0-11.66 2.341-15.91 6.59l-29.476 29.476c-2.929 2.93-2.929 7.678 0 10.607 2.929 2.928 7.678 2.928 10.606 0l29.476-29.477c1.417-1.416 3.3-2.196 5.303-2.196s3.887.78 5.304 2.197l117.071 117.07c1.417 1.416 2.196 3.3 2.196 5.303s-.78 3.887-2.197 5.303l-161.17 161.173c-1.417 1.416-3.3 2.196-5.303 2.196s-3.886-.78-5.303-2.197l-30.251-30.251c-2.929-2.928-7.678-2.928-10.606 0-2.929 2.93-2.929 7.678 0 10.607l30.25 30.25c4.25 4.25 9.9 6.591 15.91 6.591s11.661-2.341 15.91-6.59l161.171-161.172c4.25-4.249 6.591-9.899 6.591-15.91 0-3.724-.902-7.308-2.597-10.508l13.393-13.393c3.176 1.572 6.694 2.408 10.341 2.408 6.239 0 12.104-2.43 16.516-6.841l144.264-144.263c9.105-9.106 9.105-23.923-.001-33.03zm-299.669 78.556 11.818-11.818 11.818 11.818-11.818 11.818zm105.253 105.253-11.818-11.818 11.818-11.818 11.818 11.817z"/><path d="m256.854 218.365c-2.929 2.93-2.929 7.678 0 10.607l26.162 26.162c1.464 1.464 3.384 2.196 5.303 2.196s3.839-.732 5.303-2.196c2.929-2.93 2.929-7.678 0-10.607l-26.162-26.162c-2.928-2.926-7.677-2.928-10.606 0z"/><path d="m188.975 229.578c-2.929-2.928-7.678-2.928-10.606 0-2.929 2.93-2.929 7.678 0 10.607l17.939 17.939c1.464 1.464 3.384 2.196 5.303 2.196s3.839-.732 5.303-2.196c2.929-2.93 2.929-7.678 0-10.607z"/><path d="m155.944 252.002c-2.929 2.93-2.929 7.678 0 10.607l17.939 17.939c1.464 1.464 3.384 2.196 5.303 2.196s3.839-.732 5.303-2.196c2.929-2.93 2.929-7.678 0-10.607l-17.939-17.939c-2.928-2.928-7.677-2.928-10.606 0z"/><path d="m277.107 335.817c1.919 0 3.839-.732 5.303-2.196 2.929-2.93 2.929-7.678 0-10.607l-17.939-17.939c-2.929-2.928-7.678-2.928-10.606 0-2.929 2.93-2.929 7.678 0 10.607l17.939 17.939c1.464 1.463 3.384 2.196 5.303 2.196z"/><path d="m231.439 327.498c-2.929 2.93-2.929 7.678 0 10.607l17.94 17.939c1.464 1.464 3.384 2.196 5.303 2.196s3.839-.732 5.303-2.196c2.929-2.93 2.929-7.678 0-10.607l-17.94-17.939c-2.928-2.927-7.677-2.927-10.606 0z"/><path d="m191.521 345.907c1.919 0 3.839-.732 5.303-2.196 2.929-2.93 2.929-7.678 0-10.607l-17.939-17.939c-2.929-2.928-7.678-2.928-10.606 0-2.929 2.93-2.929 7.678 0 10.607l17.939 17.939c1.464 1.464 3.383 2.196 5.303 2.196z"/><path d="m148.469 305.963c1.464 1.465 3.384 2.197 5.303 2.197s3.839-.732 5.303-2.196c2.929-2.929 2.929-7.678 0-10.606l-17.939-17.94c-2.928-2.93-7.677-2.929-10.606-.001-2.929 2.929-2.929 7.678 0 10.606z"/><path d="m229.268 383.655c1.919 0 3.839-.732 5.303-2.196 2.929-2.93 2.929-7.678 0-10.607l-17.939-17.939c-2.929-2.928-7.678-2.928-10.606 0-2.929 2.93-2.929 7.678 0 10.607l17.939 17.939c1.464 1.464 3.384 2.196 5.303 2.196z"/><path d="m145.853 337.589c-2.929 2.93-2.929 7.678 0 10.607l17.94 17.939c1.464 1.464 3.384 2.196 5.303 2.196s3.839-.732 5.303-2.196c2.929-2.93 2.929-7.678 0-10.607l-17.94-17.939c-2.928-2.928-7.677-2.928-10.606 0z"/><path d="m131.348 330.584c1.919 0 3.839-.732 5.303-2.196 2.929-2.93 2.929-7.678 0-10.607l-17.939-17.939c-2.929-2.928-7.678-2.928-10.606 0-2.929 2.93-2.929 7.678 0 10.607l17.939 17.939c1.464 1.464 3.384 2.196 5.303 2.196z"/><path d="m206.844 406.079c1.919 0 3.839-.732 5.303-2.196 2.929-2.93 2.929-7.678 0-10.607l-17.939-17.939c-2.929-2.928-7.678-2.928-10.606 0-2.929 2.93-2.929 7.678 0 10.607l17.939 17.939c1.464 1.464 3.383 2.196 5.303 2.196z"/><path d="m146.671 390.756c1.919 0 3.839-.732 5.303-2.196 2.929-2.93 2.929-7.678 0-10.607l-17.939-17.939c-2.929-2.928-7.678-2.928-10.606 0-2.929 2.93-2.929 7.678 0 10.607l17.939 17.939c1.465 1.464 3.384 2.196 5.303 2.196z"/><path d="m108.924 353.009c1.919 0 3.839-.732 5.303-2.196 2.929-2.93 2.929-7.678 0-10.607l-17.939-17.939c-2.929-2.928-7.678-2.928-10.606 0-2.929 2.93-2.929 7.678 0 10.607l17.939 17.939c1.464 1.464 3.383 2.196 5.303 2.196z"/><path d="m184.419 428.504c1.919 0 3.839-.732 5.303-2.196 2.929-2.93 2.929-7.678 0-10.607l-17.939-17.939c-2.929-2.928-7.678-2.928-10.606 0-2.929 2.93-2.929 7.678 0 10.607l17.939 17.939c1.465 1.464 3.384 2.196 5.303 2.196z"/><path d="m129.55 410.985c2.929-2.93 2.929-7.678 0-10.607l-17.939-17.939c-2.929-2.928-7.678-2.928-10.606 0-2.929 2.93-2.929 7.678 0 10.607l17.939 17.939c1.464 1.464 3.384 2.196 5.303 2.196s3.839-.733 5.303-2.196z"/><path d="m86.5 375.433c1.919 0 3.839-.732 5.303-2.196 2.929-2.93 2.929-7.678 0-10.607l-17.94-17.94c-2.929-2.928-7.678-2.928-10.606 0-2.929 2.93-2.929 7.678 0 10.607l17.939 17.939c1.465 1.464 3.384 2.197 5.304 2.197z"/><path d="m156.692 448.733c1.464 1.464 3.384 2.196 5.303 2.196s3.839-.732 5.303-2.196c2.929-2.93 2.929-7.678 0-10.607l-17.94-17.939c-2.929-2.928-7.678-2.928-10.606 0-2.929 2.93-2.929 7.678 0 10.607z"/><path d="m219.18 269.468c-12.9 0-23.35 10.45-23.35 23.34 0 12.9 10.45 23.35 23.35 23.35 12.89 0 23.34-10.45 23.34-23.35 0-12.89-10.45-23.34-23.34-23.34zm0 31.7c-4.62 0-8.36-3.74-8.36-8.36 0-4.61 3.74-8.35 8.36-8.35 4.61 0 8.35 3.74 8.35 8.35 0 4.62-3.74 8.36-8.35 8.36z"/><circle cx="397.08" cy="70.058" r="7.5"/><circle cx="419.5" cy="92.488" r="7.5"/><circle cx="441.92" cy="114.919" r="7.5"/><circle cx="70.43" cy="396.706" r="7.5"/><circle cx="92.85" cy="419.137" r="7.5"/><circle cx="115.27" cy="441.567" r="7.5"/></g></g></svg>